<mxfile host="app.diagrams.net" agent="Mozilla/5.0 (Windows NT 10.0; Win64; x64) AppleWebKit/537.36 (KHTML, like Gecko) Chrome/128.0.0.0 Safari/537.36" version="24.7.14">
  <diagram name="Página-1" id="LuOxkL1Yb-oQvovYPexT">
    <mxGraphModel dx="1860" dy="829" grid="1" gridSize="10" guides="1" tooltips="1" connect="1" arrows="1" fold="1" page="1" pageScale="1" pageWidth="827" pageHeight="1169" math="0" shadow="0">
      <root>
        <mxCell id="0" />
        <mxCell id="1" parent="0" />
        <mxCell id="Qr0_MQB-56ZItfrZqpIL-1" value="Peliculas " style="swimlane;fontStyle=0;childLayout=stackLayout;horizontal=1;startSize=26;horizontalStack=0;resizeParent=1;resizeParentMax=0;resizeLast=0;collapsible=1;marginBottom=0;align=center;fontSize=13;" vertex="1" parent="1">
          <mxGeometry x="79" y="720" width="201" height="430" as="geometry" />
        </mxCell>
        <mxCell id="Qr0_MQB-56ZItfrZqpIL-2" value="&lt;div style=&quot;font-size: 13px;&quot;&gt;&lt;u&gt;Cod. Pais de Filmacion&amp;nbsp;&lt;/u&gt;&lt;/div&gt;" style="text;strokeColor=none;fillColor=none;spacingLeft=4;spacingRight=4;overflow=hidden;rotatable=0;points=[[0,0.5],[1,0.5]];portConstraint=eastwest;fontSize=13;whiteSpace=wrap;html=1;" vertex="1" parent="Qr0_MQB-56ZItfrZqpIL-1">
          <mxGeometry y="26" width="201" height="30" as="geometry" />
        </mxCell>
        <mxCell id="Qr0_MQB-56ZItfrZqpIL-3" value="&lt;span style=&quot;font-size: 13px;&quot;&gt;&lt;u&gt;Cod. Película&lt;/u&gt;&lt;/span&gt;" style="text;strokeColor=none;fillColor=none;spacingLeft=4;spacingRight=4;overflow=hidden;rotatable=0;points=[[0,0.5],[1,0.5]];portConstraint=eastwest;fontSize=13;whiteSpace=wrap;html=1;" vertex="1" parent="Qr0_MQB-56ZItfrZqpIL-1">
          <mxGeometry y="56" width="201" height="30" as="geometry" />
        </mxCell>
        <mxCell id="Qr0_MQB-56ZItfrZqpIL-4" value="&lt;span style=&quot;font-size: 13px;&quot;&gt;Nombre del país&lt;/span&gt;" style="text;strokeColor=none;fillColor=none;spacingLeft=4;spacingRight=4;overflow=hidden;rotatable=0;points=[[0,0.5],[1,0.5]];portConstraint=eastwest;fontSize=13;whiteSpace=wrap;html=1;" vertex="1" parent="Qr0_MQB-56ZItfrZqpIL-1">
          <mxGeometry y="86" width="201" height="30" as="geometry" />
        </mxCell>
        <mxCell id="Qr0_MQB-56ZItfrZqpIL-5" value="&lt;span style=&quot;font-size: 13px;&quot;&gt;Nombre de la película&lt;/span&gt;" style="text;strokeColor=none;fillColor=none;spacingLeft=4;spacingRight=4;overflow=hidden;rotatable=0;points=[[0,0.5],[1,0.5]];portConstraint=eastwest;fontSize=13;whiteSpace=wrap;html=1;" vertex="1" parent="Qr0_MQB-56ZItfrZqpIL-1">
          <mxGeometry y="116" width="201" height="30" as="geometry" />
        </mxCell>
        <mxCell id="Qr0_MQB-56ZItfrZqpIL-6" value="&lt;span style=&quot;font-size: 13px;&quot;&gt;Cod. Género&lt;/span&gt;" style="text;strokeColor=none;fillColor=none;spacingLeft=4;spacingRight=4;overflow=hidden;rotatable=0;points=[[0,0.5],[1,0.5]];portConstraint=eastwest;fontSize=13;whiteSpace=wrap;html=1;" vertex="1" parent="Qr0_MQB-56ZItfrZqpIL-1">
          <mxGeometry y="146" width="201" height="30" as="geometry" />
        </mxCell>
        <mxCell id="Qr0_MQB-56ZItfrZqpIL-7" value="&lt;span style=&quot;font-size: 14px;&quot;&gt;Descripción Género&lt;/span&gt;" style="text;strokeColor=none;fillColor=none;spacingLeft=4;spacingRight=4;overflow=hidden;rotatable=0;points=[[0,0.5],[1,0.5]];portConstraint=eastwest;fontSize=14;whiteSpace=wrap;html=1;" vertex="1" parent="Qr0_MQB-56ZItfrZqpIL-1">
          <mxGeometry y="176" width="201" height="30" as="geometry" />
        </mxCell>
        <mxCell id="Qr0_MQB-56ZItfrZqpIL-8" value="&lt;span style=&quot;font-size: 14px;&quot;&gt;Argumento de la película&lt;/span&gt;" style="text;strokeColor=none;fillColor=none;spacingLeft=4;spacingRight=4;overflow=hidden;rotatable=0;points=[[0,0.5],[1,0.5]];portConstraint=eastwest;fontSize=14;whiteSpace=wrap;html=1;" vertex="1" parent="Qr0_MQB-56ZItfrZqpIL-1">
          <mxGeometry y="206" width="201" height="30" as="geometry" />
        </mxCell>
        <mxCell id="Qr0_MQB-56ZItfrZqpIL-9" value="&lt;font style=&quot;font-size: 14px;&quot;&gt;Matrícula del Director&lt;/font&gt;" style="text;strokeColor=none;fillColor=none;spacingLeft=4;spacingRight=4;overflow=hidden;rotatable=0;points=[[0,0.5],[1,0.5]];portConstraint=eastwest;fontSize=13;whiteSpace=wrap;html=1;" vertex="1" parent="Qr0_MQB-56ZItfrZqpIL-1">
          <mxGeometry y="236" width="201" height="30" as="geometry" />
        </mxCell>
        <mxCell id="Qr0_MQB-56ZItfrZqpIL-10" value="&lt;font style=&quot;font-size: 14px;&quot;&gt;Nombre del Director&lt;/font&gt;" style="text;strokeColor=none;fillColor=none;spacingLeft=4;spacingRight=4;overflow=hidden;rotatable=0;points=[[0,0.5],[1,0.5]];portConstraint=eastwest;fontSize=13;whiteSpace=wrap;html=1;" vertex="1" parent="Qr0_MQB-56ZItfrZqpIL-1">
          <mxGeometry y="266" width="201" height="30" as="geometry" />
        </mxCell>
        <mxCell id="Qr0_MQB-56ZItfrZqpIL-11" value="Costo de rodaje" style="text;strokeColor=none;fillColor=none;align=left;verticalAlign=middle;spacingLeft=4;spacingRight=4;overflow=hidden;points=[[0,0.5],[1,0.5]];portConstraint=eastwest;rotatable=0;whiteSpace=wrap;html=1;" vertex="1" parent="Qr0_MQB-56ZItfrZqpIL-1">
          <mxGeometry y="296" width="201" height="30" as="geometry" />
        </mxCell>
        <mxCell id="Qr0_MQB-56ZItfrZqpIL-12" value="Fecha de rodaje" style="text;strokeColor=none;fillColor=none;spacingLeft=4;spacingRight=4;overflow=hidden;rotatable=0;points=[[0,0.5],[1,0.5]];portConstraint=eastwest;fontSize=13;whiteSpace=wrap;html=1;" vertex="1" parent="Qr0_MQB-56ZItfrZqpIL-1">
          <mxGeometry y="326" width="201" height="30" as="geometry" />
        </mxCell>
        <mxCell id="Qr0_MQB-56ZItfrZqpIL-13" value="Cod. de calificación de público" style="text;strokeColor=none;fillColor=none;spacingLeft=4;spacingRight=4;overflow=hidden;rotatable=0;points=[[0,0.5],[1,0.5]];portConstraint=eastwest;fontSize=13;whiteSpace=wrap;html=1;" vertex="1" parent="Qr0_MQB-56ZItfrZqpIL-1">
          <mxGeometry y="356" width="201" height="30" as="geometry" />
        </mxCell>
        <mxCell id="Qr0_MQB-56ZItfrZqpIL-14" value="Descripción calificación de público" style="text;strokeColor=none;fillColor=none;spacingLeft=4;spacingRight=4;overflow=hidden;rotatable=0;points=[[0,0.5],[1,0.5]];portConstraint=eastwest;fontSize=13;whiteSpace=wrap;html=1;" vertex="1" parent="Qr0_MQB-56ZItfrZqpIL-1">
          <mxGeometry y="386" width="201" height="44" as="geometry" />
        </mxCell>
        <mxCell id="Qr0_MQB-56ZItfrZqpIL-15" value="&lt;u&gt;PELICULAS&lt;/u&gt;&lt;br style=&quot;font-size: 10px;&quot;&gt;&lt;br style=&quot;font-size: 10px;&quot;&gt;Cod. País de filmación&lt;br style=&quot;font-size: 10px;&quot;&gt;&lt;br style=&quot;font-size: 10px;&quot;&gt;Cod. Película&lt;br style=&quot;font-size: 10px;&quot;&gt;&lt;br style=&quot;font-size: 10px;&quot;&gt;Nombre del país&lt;br style=&quot;font-size: 10px;&quot;&gt;&lt;br style=&quot;font-size: 10px;&quot;&gt;Nombre de la película&lt;br style=&quot;font-size: 10px;&quot;&gt;&lt;br style=&quot;font-size: 10px;&quot;&gt;Cod. Género&lt;br style=&quot;font-size: 10px;&quot;&gt;&lt;br style=&quot;font-size: 10px;&quot;&gt;Descripción Género&lt;br style=&quot;font-size: 10px;&quot;&gt;&lt;br style=&quot;font-size: 10px;&quot;&gt;Argumento de la película&lt;br style=&quot;font-size: 10px;&quot;&gt;&lt;br style=&quot;font-size: 10px;&quot;&gt;Matrícula del Director&lt;br style=&quot;font-size: 10px;&quot;&gt;&lt;br style=&quot;font-size: 10px;&quot;&gt;Nombre del Director&lt;br style=&quot;font-size: 10px;&quot;&gt;&lt;br style=&quot;font-size: 10px;&quot;&gt;Cursos de Dirección realizados *(1,n)&lt;br style=&quot;font-size: 10px;&quot;&gt;&lt;br style=&quot;font-size: 10px;&quot;&gt;Actores *(1,n)&lt;br style=&quot;font-size: 10px;&quot;&gt;&lt;br style=&quot;font-size: 10px;&quot;&gt;&lt;span style=&quot;white-space: pre; font-size: 10px;&quot;&gt;&#x9;&lt;/span&gt;&lt;span style=&quot;white-space: pre; font-size: 10px;&quot;&gt;&#x9;&lt;/span&gt;Legajo internacional del actor&lt;br style=&quot;font-size: 10px;&quot;&gt;&lt;br style=&quot;font-size: 10px;&quot;&gt;&lt;span style=&quot;white-space: pre; font-size: 10px;&quot;&gt;&#x9;&lt;/span&gt;&lt;span style=&quot;white-space: pre; font-size: 10px;&quot;&gt;&#x9;&lt;/span&gt;Nombre del actor&lt;br style=&quot;font-size: 10px;&quot;&gt;&lt;br style=&quot;font-size: 10px;&quot;&gt;&lt;span style=&quot;white-space: pre; font-size: 10px;&quot;&gt;&#x9;&lt;/span&gt;&lt;span style=&quot;white-space: pre; font-size: 10px;&quot;&gt;&#x9;&lt;/span&gt;Fecha de nacimiento&lt;br style=&quot;font-size: 10px;&quot;&gt;&lt;br style=&quot;font-size: 10px;&quot;&gt;&lt;span style=&quot;white-space: pre; font-size: 10px;&quot;&gt;&#x9;&lt;/span&gt;&lt;span style=&quot;white-space: pre; font-size: 10px;&quot;&gt;&#x9;&lt;/span&gt;Perfil artístico&lt;br style=&quot;font-size: 10px;&quot;&gt;&lt;br style=&quot;font-size: 10px;&quot;&gt;&lt;span style=&quot;white-space: pre; font-size: 10px;&quot;&gt;&#x9;&lt;/span&gt;&lt;span style=&quot;white-space: pre; font-size: 10px;&quot;&gt;&#x9;&lt;/span&gt;Antecedentes *(1,n)&lt;br style=&quot;font-size: 10px;&quot;&gt;&lt;br style=&quot;font-size: 10px;&quot;&gt;&lt;span style=&quot;white-space: pre; font-size: 10px;&quot;&gt;&#x9;&lt;/span&gt;&lt;span style=&quot;white-space: pre; font-size: 10px;&quot;&gt;&#x9;&lt;/span&gt;&lt;span style=&quot;white-space: pre; font-size: 10px;&quot;&gt;&#x9;&lt;/span&gt;Cod. Película en la que intervino&lt;br style=&quot;font-size: 10px;&quot;&gt;&lt;br style=&quot;font-size: 10px;&quot;&gt;&lt;span style=&quot;white-space: pre; font-size: 10px;&quot;&gt;&#x9;&lt;/span&gt;&lt;span style=&quot;white-space: pre; font-size: 10px;&quot;&gt;&#x9;&lt;/span&gt;&lt;span style=&quot;white-space: pre; font-size: 10px;&quot;&gt;&#x9;&lt;/span&gt;Cod. País de filmación&lt;br style=&quot;font-size: 10px;&quot;&gt;&lt;br style=&quot;font-size: 10px;&quot;&gt;&lt;span style=&quot;white-space: pre; font-size: 10px;&quot;&gt;&#x9;&lt;/span&gt;&lt;span style=&quot;white-space: pre; font-size: 10px;&quot;&gt;&#x9;&lt;/span&gt;&lt;span style=&quot;white-space: pre; font-size: 10px;&quot;&gt;&#x9;&lt;/span&gt;Fecha de realización&lt;br style=&quot;font-size: 10px;&quot;&gt;&lt;br style=&quot;font-size: 10px;&quot;&gt;&lt;span style=&quot;white-space: pre; font-size: 10px;&quot;&gt;&#x9;&lt;/span&gt;&lt;span style=&quot;white-space: pre; font-size: 10px;&quot;&gt;&#x9;&lt;/span&gt;&lt;span style=&quot;white-space: pre; font-size: 10px;&quot;&gt;&#x9;&lt;/span&gt;Papel interpretado&lt;br style=&quot;font-size: 10px;&quot;&gt;&lt;br style=&quot;font-size: 10px;&quot;&gt;Costo de rodaje&lt;br style=&quot;font-size: 10px;&quot;&gt;&lt;br style=&quot;font-size: 10px;&quot;&gt;Fecha de rodaje&lt;br style=&quot;font-size: 10px;&quot;&gt;&lt;br style=&quot;font-size: 10px;&quot;&gt;Cod. de calificación de público&lt;br style=&quot;font-size: 10px;&quot;&gt;&lt;br style=&quot;font-size: 10px;&quot;&gt;Descripción calificación de público" style="text;whiteSpace=wrap;html=1;fontSize=10;" vertex="1" parent="1">
          <mxGeometry x="20" y="20" width="300" height="614" as="geometry" />
        </mxCell>
        <mxCell id="Qr0_MQB-56ZItfrZqpIL-16" value="- El código de país es internacional&#xa;- La matrícula de los directores es&#xa;asignada por la Comisión Internacional de&#xa;Cine, así como también el legajo de los&#xa;actores&#xa;- Los géneros de películas son un código&#xa;internacional&#xa;-El código de películas y la calificación de&#xa;depende del país en que se filma" style="text;whiteSpace=wrap;html=1;fontSize=19;" vertex="1" parent="1">
          <mxGeometry x="320" y="20" width="370" height="280" as="geometry" />
        </mxCell>
        <mxCell id="Qr0_MQB-56ZItfrZqpIL-17" value="&lt;b&gt;&lt;font style=&quot;font-size: 18px;&quot;&gt;PRIMERA FORMA NORMAL&lt;/font&gt;&lt;/b&gt;" style="text;html=1;align=center;verticalAlign=middle;whiteSpace=wrap;rounded=0;" vertex="1" parent="1">
          <mxGeometry x="274" y="660" width="280" height="30" as="geometry" />
        </mxCell>
        <mxCell id="Qr0_MQB-56ZItfrZqpIL-18" value="Cursos de Dirección realizados" style="swimlane;fontStyle=0;childLayout=stackLayout;horizontal=1;startSize=26;horizontalStack=0;resizeParent=1;resizeParentMax=0;resizeLast=0;collapsible=1;marginBottom=0;align=center;fontSize=14;" vertex="1" parent="1">
          <mxGeometry x="320" y="720" width="220" height="116" as="geometry" />
        </mxCell>
        <mxCell id="Qr0_MQB-56ZItfrZqpIL-19" value="&lt;u style=&quot;font-size: 13px;&quot;&gt;Cod. Pais de Filmacion&amp;nbsp;&lt;/u&gt;" style="text;strokeColor=none;fillColor=none;spacingLeft=4;spacingRight=4;overflow=hidden;rotatable=0;points=[[0,0.5],[1,0.5]];portConstraint=eastwest;fontSize=12;whiteSpace=wrap;html=1;" vertex="1" parent="Qr0_MQB-56ZItfrZqpIL-18">
          <mxGeometry y="26" width="220" height="30" as="geometry" />
        </mxCell>
        <mxCell id="Qr0_MQB-56ZItfrZqpIL-20" value="&lt;u style=&quot;font-size: 13px;&quot;&gt;Cod. Película&lt;/u&gt;" style="text;strokeColor=none;fillColor=none;spacingLeft=4;spacingRight=4;overflow=hidden;rotatable=0;points=[[0,0.5],[1,0.5]];portConstraint=eastwest;fontSize=12;whiteSpace=wrap;html=1;" vertex="1" parent="Qr0_MQB-56ZItfrZqpIL-18">
          <mxGeometry y="56" width="220" height="30" as="geometry" />
        </mxCell>
        <mxCell id="Qr0_MQB-56ZItfrZqpIL-21" value="&lt;span style=&quot;font-size: 14px; text-align: center; text-wrap: nowrap;&quot;&gt;&lt;u&gt;Cursos de Dirección realizados&lt;/u&gt;&lt;/span&gt;" style="text;strokeColor=none;fillColor=none;spacingLeft=4;spacingRight=4;overflow=hidden;rotatable=0;points=[[0,0.5],[1,0.5]];portConstraint=eastwest;fontSize=12;whiteSpace=wrap;html=1;" vertex="1" parent="Qr0_MQB-56ZItfrZqpIL-18">
          <mxGeometry y="86" width="220" height="30" as="geometry" />
        </mxCell>
        <mxCell id="Qr0_MQB-56ZItfrZqpIL-22" value="Actores" style="swimlane;fontStyle=0;childLayout=stackLayout;horizontal=1;startSize=26;horizontalStack=0;resizeParent=1;resizeParentMax=0;resizeLast=0;collapsible=1;marginBottom=0;align=center;fontSize=13;" vertex="1" parent="1">
          <mxGeometry x="580" y="720" width="180" height="206" as="geometry" />
        </mxCell>
        <mxCell id="Qr0_MQB-56ZItfrZqpIL-23" value="&lt;div style=&quot;font-size: 13px;&quot;&gt;&lt;u&gt;Cod. Pais de Filmacion&amp;nbsp;&lt;/u&gt;&lt;/div&gt;" style="text;strokeColor=none;fillColor=none;spacingLeft=4;spacingRight=4;overflow=hidden;rotatable=0;points=[[0,0.5],[1,0.5]];portConstraint=eastwest;fontSize=13;whiteSpace=wrap;html=1;" vertex="1" parent="Qr0_MQB-56ZItfrZqpIL-22">
          <mxGeometry y="26" width="180" height="30" as="geometry" />
        </mxCell>
        <mxCell id="Qr0_MQB-56ZItfrZqpIL-24" value="&lt;span style=&quot;font-size: 13px;&quot;&gt;&lt;u&gt;Cod. Película&lt;/u&gt;&lt;/span&gt;" style="text;strokeColor=none;fillColor=none;spacingLeft=4;spacingRight=4;overflow=hidden;rotatable=0;points=[[0,0.5],[1,0.5]];portConstraint=eastwest;fontSize=13;whiteSpace=wrap;html=1;" vertex="1" parent="Qr0_MQB-56ZItfrZqpIL-22">
          <mxGeometry y="56" width="180" height="30" as="geometry" />
        </mxCell>
        <mxCell id="Qr0_MQB-56ZItfrZqpIL-25" value="&lt;span style=&quot;font-size: 13px;&quot;&gt;&lt;u&gt;Legajo internacional del actor&lt;/u&gt;&lt;/span&gt;" style="text;strokeColor=none;fillColor=none;spacingLeft=4;spacingRight=4;overflow=hidden;rotatable=0;points=[[0,0.5],[1,0.5]];portConstraint=eastwest;fontSize=13;whiteSpace=wrap;html=1;" vertex="1" parent="Qr0_MQB-56ZItfrZqpIL-22">
          <mxGeometry y="86" width="180" height="30" as="geometry" />
        </mxCell>
        <mxCell id="Qr0_MQB-56ZItfrZqpIL-26" value="&lt;span style=&quot;font-size: 13px;&quot;&gt;Nombre del actor&lt;/span&gt;" style="text;strokeColor=none;fillColor=none;spacingLeft=4;spacingRight=4;overflow=hidden;rotatable=0;points=[[0,0.5],[1,0.5]];portConstraint=eastwest;fontSize=13;whiteSpace=wrap;html=1;" vertex="1" parent="Qr0_MQB-56ZItfrZqpIL-22">
          <mxGeometry y="116" width="180" height="30" as="geometry" />
        </mxCell>
        <mxCell id="Qr0_MQB-56ZItfrZqpIL-27" value="&lt;span style=&quot;font-size: 14px;&quot;&gt;Fecha de nacimiento&lt;/span&gt;" style="text;strokeColor=none;fillColor=none;spacingLeft=4;spacingRight=4;overflow=hidden;rotatable=0;points=[[0,0.5],[1,0.5]];portConstraint=eastwest;fontSize=14;whiteSpace=wrap;html=1;" vertex="1" parent="Qr0_MQB-56ZItfrZqpIL-22">
          <mxGeometry y="146" width="180" height="30" as="geometry" />
        </mxCell>
        <mxCell id="Qr0_MQB-56ZItfrZqpIL-28" value="&lt;span style=&quot;font-size: 14px;&quot;&gt;Perfil artistico&lt;/span&gt;" style="text;strokeColor=none;fillColor=none;spacingLeft=4;spacingRight=4;overflow=hidden;rotatable=0;points=[[0,0.5],[1,0.5]];portConstraint=eastwest;fontSize=14;whiteSpace=wrap;html=1;" vertex="1" parent="Qr0_MQB-56ZItfrZqpIL-22">
          <mxGeometry y="176" width="180" height="30" as="geometry" />
        </mxCell>
        <mxCell id="Qr0_MQB-56ZItfrZqpIL-29" value="Antecedentes" style="swimlane;fontStyle=0;childLayout=stackLayout;horizontal=1;startSize=26;horizontalStack=0;resizeParent=1;resizeParentMax=0;resizeLast=0;collapsible=1;marginBottom=0;align=center;fontSize=13;" vertex="1" parent="1">
          <mxGeometry x="320" y="860" width="220" height="236" as="geometry" />
        </mxCell>
        <mxCell id="Qr0_MQB-56ZItfrZqpIL-30" value="&lt;div style=&quot;font-size: 13px;&quot;&gt;&lt;u&gt;Cod. Pais de Filmacion&amp;nbsp;&lt;/u&gt;&lt;/div&gt;" style="text;strokeColor=none;fillColor=none;spacingLeft=4;spacingRight=4;overflow=hidden;rotatable=0;points=[[0,0.5],[1,0.5]];portConstraint=eastwest;fontSize=13;whiteSpace=wrap;html=1;" vertex="1" parent="Qr0_MQB-56ZItfrZqpIL-29">
          <mxGeometry y="26" width="220" height="30" as="geometry" />
        </mxCell>
        <mxCell id="Qr0_MQB-56ZItfrZqpIL-31" value="&lt;span style=&quot;font-size: 13px;&quot;&gt;&lt;u&gt;Cod. Película&lt;/u&gt;&lt;/span&gt;" style="text;strokeColor=none;fillColor=none;spacingLeft=4;spacingRight=4;overflow=hidden;rotatable=0;points=[[0,0.5],[1,0.5]];portConstraint=eastwest;fontSize=13;whiteSpace=wrap;html=1;" vertex="1" parent="Qr0_MQB-56ZItfrZqpIL-29">
          <mxGeometry y="56" width="220" height="30" as="geometry" />
        </mxCell>
        <mxCell id="Qr0_MQB-56ZItfrZqpIL-32" value="&lt;span style=&quot;font-size: 13px;&quot;&gt;&lt;u&gt;Legajo internacional del actor&lt;/u&gt;&lt;/span&gt;" style="text;strokeColor=none;fillColor=none;spacingLeft=4;spacingRight=4;overflow=hidden;rotatable=0;points=[[0,0.5],[1,0.5]];portConstraint=eastwest;fontSize=13;whiteSpace=wrap;html=1;" vertex="1" parent="Qr0_MQB-56ZItfrZqpIL-29">
          <mxGeometry y="86" width="220" height="30" as="geometry" />
        </mxCell>
        <mxCell id="Qr0_MQB-56ZItfrZqpIL-33" value="&lt;u&gt;Cod. Película en la que intervino&amp;nbsp;&lt;/u&gt;" style="text;strokeColor=none;fillColor=none;spacingLeft=4;spacingRight=4;overflow=hidden;rotatable=0;points=[[0,0.5],[1,0.5]];portConstraint=eastwest;fontSize=13;whiteSpace=wrap;html=1;" vertex="1" parent="Qr0_MQB-56ZItfrZqpIL-29">
          <mxGeometry y="116" width="220" height="30" as="geometry" />
        </mxCell>
        <mxCell id="Qr0_MQB-56ZItfrZqpIL-34" value="&lt;u&gt;Cod. País de filmación&amp;nbsp;&lt;/u&gt;" style="text;strokeColor=none;fillColor=none;spacingLeft=4;spacingRight=4;overflow=hidden;rotatable=0;points=[[0,0.5],[1,0.5]];portConstraint=eastwest;fontSize=14;whiteSpace=wrap;html=1;" vertex="1" parent="Qr0_MQB-56ZItfrZqpIL-29">
          <mxGeometry y="146" width="220" height="30" as="geometry" />
        </mxCell>
        <mxCell id="Qr0_MQB-56ZItfrZqpIL-35" value="&lt;span style=&quot;font-size: 14px;&quot;&gt;Fecha Realizacion&lt;/span&gt;&lt;div&gt;&lt;span style=&quot;font-size: 14px;&quot;&gt;&lt;br&gt;&lt;/span&gt;&lt;/div&gt;" style="text;strokeColor=none;fillColor=none;spacingLeft=4;spacingRight=4;overflow=hidden;rotatable=0;points=[[0,0.5],[1,0.5]];portConstraint=eastwest;fontSize=14;whiteSpace=wrap;html=1;" vertex="1" parent="Qr0_MQB-56ZItfrZqpIL-29">
          <mxGeometry y="176" width="220" height="30" as="geometry" />
        </mxCell>
        <mxCell id="Qr0_MQB-56ZItfrZqpIL-36" value="&lt;div&gt;&lt;span style=&quot;font-size: 14px;&quot;&gt;Papel Interpretado&lt;/span&gt;&lt;/div&gt;" style="text;strokeColor=none;fillColor=none;spacingLeft=4;spacingRight=4;overflow=hidden;rotatable=0;points=[[0,0.5],[1,0.5]];portConstraint=eastwest;fontSize=14;whiteSpace=wrap;html=1;" vertex="1" parent="Qr0_MQB-56ZItfrZqpIL-29">
          <mxGeometry y="206" width="220" height="30" as="geometry" />
        </mxCell>
        <mxCell id="Qr0_MQB-56ZItfrZqpIL-37" value="&lt;b&gt;&lt;font style=&quot;font-size: 18px;&quot;&gt;SEGUNDA FORMA NORMAL&lt;/font&gt;&lt;/b&gt;" style="text;html=1;align=center;verticalAlign=middle;whiteSpace=wrap;rounded=0;" vertex="1" parent="1">
          <mxGeometry x="272.5" y="1210" width="280" height="30" as="geometry" />
        </mxCell>
        <mxCell id="Qr0_MQB-56ZItfrZqpIL-38" value="Peliculas " style="swimlane;fontStyle=0;childLayout=stackLayout;horizontal=1;startSize=26;horizontalStack=0;resizeParent=1;resizeParentMax=0;resizeLast=0;collapsible=1;marginBottom=0;align=center;fontSize=13;" vertex="1" parent="1">
          <mxGeometry x="292.5" y="1280" width="240" height="296" as="geometry" />
        </mxCell>
        <mxCell id="Qr0_MQB-56ZItfrZqpIL-39" value="&lt;div style=&quot;&quot;&gt;&lt;u style=&quot;&quot;&gt;&lt;font style=&quot;font-size: 14px;&quot;&gt;Cod. Pais de Filmacion&amp;nbsp;&lt;/font&gt;&lt;/u&gt;&lt;/div&gt;" style="text;strokeColor=none;fillColor=none;spacingLeft=4;spacingRight=4;overflow=hidden;rotatable=0;points=[[0,0.5],[1,0.5]];portConstraint=eastwest;fontSize=13;whiteSpace=wrap;html=1;" vertex="1" parent="Qr0_MQB-56ZItfrZqpIL-38">
          <mxGeometry y="26" width="240" height="30" as="geometry" />
        </mxCell>
        <mxCell id="Qr0_MQB-56ZItfrZqpIL-40" value="&lt;u style=&quot;&quot;&gt;&lt;font style=&quot;font-size: 14px;&quot;&gt;Cod. Película&lt;/font&gt;&lt;/u&gt;" style="text;strokeColor=none;fillColor=none;spacingLeft=4;spacingRight=4;overflow=hidden;rotatable=0;points=[[0,0.5],[1,0.5]];portConstraint=eastwest;fontSize=13;whiteSpace=wrap;html=1;" vertex="1" parent="Qr0_MQB-56ZItfrZqpIL-38">
          <mxGeometry y="56" width="240" height="30" as="geometry" />
        </mxCell>
        <mxCell id="Qr0_MQB-56ZItfrZqpIL-41" value="&lt;font style=&quot;font-size: 14px;&quot;&gt;Nombre de la Pelicula&lt;/font&gt;" style="text;strokeColor=none;fillColor=none;spacingLeft=4;spacingRight=4;overflow=hidden;rotatable=0;points=[[0,0.5],[1,0.5]];portConstraint=eastwest;fontSize=12;whiteSpace=wrap;html=1;" vertex="1" parent="Qr0_MQB-56ZItfrZqpIL-38">
          <mxGeometry y="86" width="240" height="30" as="geometry" />
        </mxCell>
        <mxCell id="Qr0_MQB-56ZItfrZqpIL-42" value="&lt;font style=&quot;font-size: 14px;&quot;&gt;Cod. Género&lt;/font&gt;" style="text;strokeColor=none;fillColor=none;spacingLeft=4;spacingRight=4;overflow=hidden;rotatable=0;points=[[0,0.5],[1,0.5]];portConstraint=eastwest;fontSize=13;whiteSpace=wrap;html=1;" vertex="1" parent="Qr0_MQB-56ZItfrZqpIL-38">
          <mxGeometry y="116" width="240" height="30" as="geometry" />
        </mxCell>
        <mxCell id="Qr0_MQB-56ZItfrZqpIL-43" value="&lt;span style=&quot;font-size: 14px;&quot;&gt;Argumento de la película&lt;/span&gt;" style="text;strokeColor=none;fillColor=none;spacingLeft=4;spacingRight=4;overflow=hidden;rotatable=0;points=[[0,0.5],[1,0.5]];portConstraint=eastwest;fontSize=14;whiteSpace=wrap;html=1;" vertex="1" parent="Qr0_MQB-56ZItfrZqpIL-38">
          <mxGeometry y="146" width="240" height="30" as="geometry" />
        </mxCell>
        <mxCell id="Qr0_MQB-56ZItfrZqpIL-44" value="&lt;font style=&quot;font-size: 14px;&quot;&gt;Matrícula del Director&lt;/font&gt;" style="text;strokeColor=none;fillColor=none;spacingLeft=4;spacingRight=4;overflow=hidden;rotatable=0;points=[[0,0.5],[1,0.5]];portConstraint=eastwest;fontSize=13;whiteSpace=wrap;html=1;" vertex="1" parent="Qr0_MQB-56ZItfrZqpIL-38">
          <mxGeometry y="176" width="240" height="30" as="geometry" />
        </mxCell>
        <mxCell id="Qr0_MQB-56ZItfrZqpIL-45" value="&lt;font style=&quot;font-size: 14px;&quot;&gt;Costo de rodaje&lt;/font&gt;" style="text;strokeColor=none;fillColor=none;align=left;verticalAlign=middle;spacingLeft=4;spacingRight=4;overflow=hidden;points=[[0,0.5],[1,0.5]];portConstraint=eastwest;rotatable=0;whiteSpace=wrap;html=1;" vertex="1" parent="Qr0_MQB-56ZItfrZqpIL-38">
          <mxGeometry y="206" width="240" height="30" as="geometry" />
        </mxCell>
        <mxCell id="Qr0_MQB-56ZItfrZqpIL-46" value="&lt;font style=&quot;font-size: 14px;&quot;&gt;Fecha de rodaje&lt;/font&gt;" style="text;strokeColor=none;fillColor=none;spacingLeft=4;spacingRight=4;overflow=hidden;rotatable=0;points=[[0,0.5],[1,0.5]];portConstraint=eastwest;fontSize=13;whiteSpace=wrap;html=1;" vertex="1" parent="Qr0_MQB-56ZItfrZqpIL-38">
          <mxGeometry y="236" width="240" height="30" as="geometry" />
        </mxCell>
        <mxCell id="Qr0_MQB-56ZItfrZqpIL-47" value="&lt;font style=&quot;font-size: 14px;&quot;&gt;Cod. de calificación de público&lt;/font&gt;" style="text;strokeColor=none;fillColor=none;spacingLeft=4;spacingRight=4;overflow=hidden;rotatable=0;points=[[0,0.5],[1,0.5]];portConstraint=eastwest;fontSize=13;whiteSpace=wrap;html=1;" vertex="1" parent="Qr0_MQB-56ZItfrZqpIL-38">
          <mxGeometry y="266" width="240" height="30" as="geometry" />
        </mxCell>
        <mxCell id="Qr0_MQB-56ZItfrZqpIL-48" value="Generos" style="swimlane;fontStyle=0;childLayout=stackLayout;horizontal=1;startSize=26;horizontalStack=0;resizeParent=1;resizeParentMax=0;resizeLast=0;collapsible=1;marginBottom=0;align=center;fontSize=14;" vertex="1" parent="1">
          <mxGeometry x="32" y="1510" width="240" height="86" as="geometry" />
        </mxCell>
        <mxCell id="Qr0_MQB-56ZItfrZqpIL-49" value="&lt;u style=&quot;&quot;&gt;&lt;font style=&quot;font-size: 14px;&quot;&gt;Cod. Género&lt;/font&gt;&lt;/u&gt;" style="text;strokeColor=none;fillColor=none;spacingLeft=4;spacingRight=4;overflow=hidden;rotatable=0;points=[[0,0.5],[1,0.5]];portConstraint=eastwest;fontSize=12;whiteSpace=wrap;html=1;" vertex="1" parent="Qr0_MQB-56ZItfrZqpIL-48">
          <mxGeometry y="26" width="240" height="30" as="geometry" />
        </mxCell>
        <mxCell id="Qr0_MQB-56ZItfrZqpIL-50" value="&lt;span style=&quot;font-size: 14px;&quot;&gt;Descripción Género&lt;/span&gt;" style="text;strokeColor=none;fillColor=none;spacingLeft=4;spacingRight=4;overflow=hidden;rotatable=0;points=[[0,0.5],[1,0.5]];portConstraint=eastwest;fontSize=12;whiteSpace=wrap;html=1;" vertex="1" parent="Qr0_MQB-56ZItfrZqpIL-48">
          <mxGeometry y="56" width="240" height="30" as="geometry" />
        </mxCell>
        <mxCell id="Qr0_MQB-56ZItfrZqpIL-51" value="Calificaciones" style="swimlane;fontStyle=0;childLayout=stackLayout;horizontal=1;startSize=26;horizontalStack=0;resizeParent=1;resizeParentMax=0;resizeLast=0;collapsible=1;marginBottom=0;align=center;fontSize=14;" vertex="1" parent="1">
          <mxGeometry x="32" y="1624" width="240" height="116" as="geometry" />
        </mxCell>
        <mxCell id="Qr0_MQB-56ZItfrZqpIL-52" value="&lt;u style=&quot;&quot;&gt;&lt;font style=&quot;font-size: 14px;&quot;&gt;Cod. de calificación de público&lt;/font&gt;&lt;/u&gt;" style="text;strokeColor=none;fillColor=none;spacingLeft=4;spacingRight=4;overflow=hidden;rotatable=0;points=[[0,0.5],[1,0.5]];portConstraint=eastwest;fontSize=12;whiteSpace=wrap;html=1;" vertex="1" parent="Qr0_MQB-56ZItfrZqpIL-51">
          <mxGeometry y="26" width="240" height="30" as="geometry" />
        </mxCell>
        <mxCell id="Qr0_MQB-56ZItfrZqpIL-53" value="&lt;div style=&quot;&quot;&gt;&lt;u style=&quot;&quot;&gt;&lt;font style=&quot;font-size: 14px;&quot;&gt;Cod. Pais de Filmacion&amp;nbsp;&lt;/font&gt;&lt;/u&gt;&lt;/div&gt;" style="text;strokeColor=none;fillColor=none;spacingLeft=4;spacingRight=4;overflow=hidden;rotatable=0;points=[[0,0.5],[1,0.5]];portConstraint=eastwest;fontSize=13;whiteSpace=wrap;html=1;" vertex="1" parent="Qr0_MQB-56ZItfrZqpIL-51">
          <mxGeometry y="56" width="240" height="30" as="geometry" />
        </mxCell>
        <mxCell id="Qr0_MQB-56ZItfrZqpIL-54" value="&lt;font style=&quot;font-size: 14px;&quot;&gt;Descripción calificación de público&lt;/font&gt;" style="text;strokeColor=none;fillColor=none;spacingLeft=4;spacingRight=4;overflow=hidden;rotatable=0;points=[[0,0.5],[1,0.5]];portConstraint=eastwest;fontSize=12;whiteSpace=wrap;html=1;" vertex="1" parent="Qr0_MQB-56ZItfrZqpIL-51">
          <mxGeometry y="86" width="240" height="30" as="geometry" />
        </mxCell>
        <mxCell id="Qr0_MQB-56ZItfrZqpIL-55" value="Directores" style="swimlane;fontStyle=0;childLayout=stackLayout;horizontal=1;startSize=26;horizontalStack=0;resizeParent=1;resizeParentMax=0;resizeLast=0;collapsible=1;marginBottom=0;align=center;fontSize=14;" vertex="1" parent="1">
          <mxGeometry x="32.5" y="1280" width="240" height="86" as="geometry" />
        </mxCell>
        <mxCell id="Qr0_MQB-56ZItfrZqpIL-56" value="&lt;u style=&quot;&quot;&gt;&lt;font style=&quot;font-size: 14px;&quot;&gt;Matricula del director&lt;/font&gt;&lt;/u&gt;" style="text;strokeColor=none;fillColor=none;spacingLeft=4;spacingRight=4;overflow=hidden;rotatable=0;points=[[0,0.5],[1,0.5]];portConstraint=eastwest;fontSize=12;whiteSpace=wrap;html=1;" vertex="1" parent="Qr0_MQB-56ZItfrZqpIL-55">
          <mxGeometry y="26" width="240" height="30" as="geometry" />
        </mxCell>
        <mxCell id="Qr0_MQB-56ZItfrZqpIL-57" value="&lt;font style=&quot;font-size: 14px;&quot;&gt;Nombre del director&amp;nbsp;&lt;/font&gt;" style="text;strokeColor=none;fillColor=none;spacingLeft=4;spacingRight=4;overflow=hidden;rotatable=0;points=[[0,0.5],[1,0.5]];portConstraint=eastwest;fontSize=12;whiteSpace=wrap;html=1;" vertex="1" parent="Qr0_MQB-56ZItfrZqpIL-55">
          <mxGeometry y="56" width="240" height="30" as="geometry" />
        </mxCell>
        <mxCell id="Qr0_MQB-56ZItfrZqpIL-58" value="Datos Actores" style="swimlane;fontStyle=0;childLayout=stackLayout;horizontal=1;startSize=26;horizontalStack=0;resizeParent=1;resizeParentMax=0;resizeLast=0;collapsible=1;marginBottom=0;align=center;fontSize=13;" vertex="1" parent="1">
          <mxGeometry x="568.5" y="1430" width="240.5" height="146" as="geometry" />
        </mxCell>
        <mxCell id="Qr0_MQB-56ZItfrZqpIL-59" value="&lt;div style=&quot;&quot;&gt;&lt;u style=&quot;&quot;&gt;&lt;font style=&quot;font-size: 14px;&quot;&gt;Legajo internacional del actor&lt;/font&gt;&lt;/u&gt;&lt;br&gt;&lt;/div&gt;" style="text;strokeColor=none;fillColor=none;spacingLeft=4;spacingRight=4;overflow=hidden;rotatable=0;points=[[0,0.5],[1,0.5]];portConstraint=eastwest;fontSize=13;whiteSpace=wrap;html=1;" vertex="1" parent="Qr0_MQB-56ZItfrZqpIL-58">
          <mxGeometry y="26" width="240.5" height="30" as="geometry" />
        </mxCell>
        <mxCell id="Qr0_MQB-56ZItfrZqpIL-60" value="&lt;font style=&quot;font-size: 14px;&quot;&gt;Nombre del actor&lt;/font&gt;" style="text;strokeColor=none;fillColor=none;spacingLeft=4;spacingRight=4;overflow=hidden;rotatable=0;points=[[0,0.5],[1,0.5]];portConstraint=eastwest;fontSize=13;whiteSpace=wrap;html=1;" vertex="1" parent="Qr0_MQB-56ZItfrZqpIL-58">
          <mxGeometry y="56" width="240.5" height="30" as="geometry" />
        </mxCell>
        <mxCell id="Qr0_MQB-56ZItfrZqpIL-61" value="&lt;span style=&quot;font-size: 14px;&quot;&gt;Fecha de nacimiento&lt;/span&gt;" style="text;strokeColor=none;fillColor=none;spacingLeft=4;spacingRight=4;overflow=hidden;rotatable=0;points=[[0,0.5],[1,0.5]];portConstraint=eastwest;fontSize=13;whiteSpace=wrap;html=1;" vertex="1" parent="Qr0_MQB-56ZItfrZqpIL-58">
          <mxGeometry y="86" width="240.5" height="30" as="geometry" />
        </mxCell>
        <mxCell id="Qr0_MQB-56ZItfrZqpIL-62" value="&lt;span style=&quot;font-size: 14px;&quot;&gt;Perfil artistico&lt;/span&gt;" style="text;strokeColor=none;fillColor=none;spacingLeft=4;spacingRight=4;overflow=hidden;rotatable=0;points=[[0,0.5],[1,0.5]];portConstraint=eastwest;fontSize=13;whiteSpace=wrap;html=1;" vertex="1" parent="Qr0_MQB-56ZItfrZqpIL-58">
          <mxGeometry y="116" width="240.5" height="30" as="geometry" />
        </mxCell>
        <mxCell id="Qr0_MQB-56ZItfrZqpIL-63" value="Paises" style="swimlane;fontStyle=0;childLayout=stackLayout;horizontal=1;startSize=26;horizontalStack=0;resizeParent=1;resizeParentMax=0;resizeLast=0;collapsible=1;marginBottom=0;align=center;fontSize=14;" vertex="1" parent="1">
          <mxGeometry x="292.5" y="1600" width="240" height="86" as="geometry" />
        </mxCell>
        <mxCell id="Qr0_MQB-56ZItfrZqpIL-64" value="&lt;u style=&quot;&quot;&gt;&lt;font style=&quot;font-size: 14px;&quot;&gt;Cod. Pais de Filmacion&amp;nbsp;&lt;/font&gt;&lt;/u&gt;" style="text;strokeColor=none;fillColor=none;spacingLeft=4;spacingRight=4;overflow=hidden;rotatable=0;points=[[0,0.5],[1,0.5]];portConstraint=eastwest;fontSize=12;whiteSpace=wrap;html=1;" vertex="1" parent="Qr0_MQB-56ZItfrZqpIL-63">
          <mxGeometry y="26" width="240" height="30" as="geometry" />
        </mxCell>
        <mxCell id="Qr0_MQB-56ZItfrZqpIL-65" value="&lt;div style=&quot;&quot;&gt;&lt;font style=&quot;font-size: 14px;&quot;&gt;Nombre del país&lt;/font&gt;&lt;br&gt;&lt;/div&gt;" style="text;strokeColor=none;fillColor=none;spacingLeft=4;spacingRight=4;overflow=hidden;rotatable=0;points=[[0,0.5],[1,0.5]];portConstraint=eastwest;fontSize=13;whiteSpace=wrap;html=1;" vertex="1" parent="Qr0_MQB-56ZItfrZqpIL-63">
          <mxGeometry y="56" width="240" height="30" as="geometry" />
        </mxCell>
        <mxCell id="Qr0_MQB-56ZItfrZqpIL-66" value="Cursos de Dirección realizados" style="swimlane;fontStyle=0;childLayout=stackLayout;horizontal=1;startSize=26;horizontalStack=0;resizeParent=1;resizeParentMax=0;resizeLast=0;collapsible=1;marginBottom=0;align=center;fontSize=14;" vertex="1" parent="1">
          <mxGeometry x="32" y="1396" width="240" height="86" as="geometry" />
        </mxCell>
        <mxCell id="Qr0_MQB-56ZItfrZqpIL-67" value="&lt;u style=&quot;&quot;&gt;&lt;font style=&quot;font-size: 14px;&quot;&gt;Matricula del director&lt;/font&gt;&lt;/u&gt;" style="text;strokeColor=none;fillColor=none;spacingLeft=4;spacingRight=4;overflow=hidden;rotatable=0;points=[[0,0.5],[1,0.5]];portConstraint=eastwest;fontSize=12;whiteSpace=wrap;html=1;" vertex="1" parent="Qr0_MQB-56ZItfrZqpIL-66">
          <mxGeometry y="26" width="240" height="30" as="geometry" />
        </mxCell>
        <mxCell id="Qr0_MQB-56ZItfrZqpIL-68" value="&lt;span style=&quot;font-size: 14px; text-align: center; text-wrap: nowrap;&quot;&gt;&lt;u&gt;Cursos de Dirección realizados&lt;/u&gt;&lt;/span&gt;" style="text;strokeColor=none;fillColor=none;spacingLeft=4;spacingRight=4;overflow=hidden;rotatable=0;points=[[0,0.5],[1,0.5]];portConstraint=eastwest;fontSize=12;whiteSpace=wrap;html=1;" vertex="1" parent="Qr0_MQB-56ZItfrZqpIL-66">
          <mxGeometry y="56" width="240" height="30" as="geometry" />
        </mxCell>
        <mxCell id="Qr0_MQB-56ZItfrZqpIL-69" value="Actores" style="swimlane;fontStyle=0;childLayout=stackLayout;horizontal=1;startSize=26;horizontalStack=0;resizeParent=1;resizeParentMax=0;resizeLast=0;collapsible=1;marginBottom=0;align=center;fontSize=13;" vertex="1" parent="1">
          <mxGeometry x="568.5" y="1280" width="240" height="116" as="geometry" />
        </mxCell>
        <mxCell id="Qr0_MQB-56ZItfrZqpIL-70" value="&lt;div style=&quot;&quot;&gt;&lt;u style=&quot;&quot;&gt;&lt;font style=&quot;font-size: 14px;&quot;&gt;Cod. Pais de Filmacion&amp;nbsp;&lt;/font&gt;&lt;/u&gt;&lt;/div&gt;" style="text;strokeColor=none;fillColor=none;spacingLeft=4;spacingRight=4;overflow=hidden;rotatable=0;points=[[0,0.5],[1,0.5]];portConstraint=eastwest;fontSize=13;whiteSpace=wrap;html=1;" vertex="1" parent="Qr0_MQB-56ZItfrZqpIL-69">
          <mxGeometry y="26" width="240" height="30" as="geometry" />
        </mxCell>
        <mxCell id="Qr0_MQB-56ZItfrZqpIL-71" value="&lt;u style=&quot;&quot;&gt;&lt;font style=&quot;font-size: 14px;&quot;&gt;Cod. Película&lt;/font&gt;&lt;/u&gt;" style="text;strokeColor=none;fillColor=none;spacingLeft=4;spacingRight=4;overflow=hidden;rotatable=0;points=[[0,0.5],[1,0.5]];portConstraint=eastwest;fontSize=13;whiteSpace=wrap;html=1;" vertex="1" parent="Qr0_MQB-56ZItfrZqpIL-69">
          <mxGeometry y="56" width="240" height="30" as="geometry" />
        </mxCell>
        <mxCell id="Qr0_MQB-56ZItfrZqpIL-72" value="&lt;u style=&quot;&quot;&gt;&lt;font style=&quot;font-size: 14px;&quot;&gt;Legajo internacional del actor&lt;/font&gt;&lt;/u&gt;" style="text;strokeColor=none;fillColor=none;spacingLeft=4;spacingRight=4;overflow=hidden;rotatable=0;points=[[0,0.5],[1,0.5]];portConstraint=eastwest;fontSize=13;whiteSpace=wrap;html=1;" vertex="1" parent="Qr0_MQB-56ZItfrZqpIL-69">
          <mxGeometry y="86" width="240" height="30" as="geometry" />
        </mxCell>
        <mxCell id="Qr0_MQB-56ZItfrZqpIL-73" value="Antecedentes" style="swimlane;fontStyle=0;childLayout=stackLayout;horizontal=1;startSize=26;horizontalStack=0;resizeParent=1;resizeParentMax=0;resizeLast=0;collapsible=1;marginBottom=0;align=center;fontSize=13;" vertex="1" parent="1">
          <mxGeometry x="568.5" y="1600" width="240" height="176" as="geometry" />
        </mxCell>
        <mxCell id="Qr0_MQB-56ZItfrZqpIL-74" value="&lt;span style=&quot;font-size: 13px;&quot;&gt;&lt;u&gt;Legajo internacional del actor&lt;/u&gt;&lt;/span&gt;" style="text;strokeColor=none;fillColor=none;spacingLeft=4;spacingRight=4;overflow=hidden;rotatable=0;points=[[0,0.5],[1,0.5]];portConstraint=eastwest;fontSize=13;whiteSpace=wrap;html=1;" vertex="1" parent="Qr0_MQB-56ZItfrZqpIL-73">
          <mxGeometry y="26" width="240" height="30" as="geometry" />
        </mxCell>
        <mxCell id="Qr0_MQB-56ZItfrZqpIL-75" value="&lt;u&gt;Cod. Película en la que intervino&amp;nbsp;&lt;/u&gt;" style="text;strokeColor=none;fillColor=none;spacingLeft=4;spacingRight=4;overflow=hidden;rotatable=0;points=[[0,0.5],[1,0.5]];portConstraint=eastwest;fontSize=13;whiteSpace=wrap;html=1;" vertex="1" parent="Qr0_MQB-56ZItfrZqpIL-73">
          <mxGeometry y="56" width="240" height="30" as="geometry" />
        </mxCell>
        <mxCell id="Qr0_MQB-56ZItfrZqpIL-76" value="&lt;u&gt;Cod. País de filmación&amp;nbsp;&lt;/u&gt;" style="text;strokeColor=none;fillColor=none;spacingLeft=4;spacingRight=4;overflow=hidden;rotatable=0;points=[[0,0.5],[1,0.5]];portConstraint=eastwest;fontSize=14;whiteSpace=wrap;html=1;" vertex="1" parent="Qr0_MQB-56ZItfrZqpIL-73">
          <mxGeometry y="86" width="240" height="30" as="geometry" />
        </mxCell>
        <mxCell id="Qr0_MQB-56ZItfrZqpIL-77" value="&lt;span style=&quot;font-size: 14px;&quot;&gt;Fecha Realizacion&lt;/span&gt;&lt;div&gt;&lt;span style=&quot;font-size: 14px;&quot;&gt;&lt;br&gt;&lt;/span&gt;&lt;/div&gt;" style="text;strokeColor=none;fillColor=none;spacingLeft=4;spacingRight=4;overflow=hidden;rotatable=0;points=[[0,0.5],[1,0.5]];portConstraint=eastwest;fontSize=14;whiteSpace=wrap;html=1;" vertex="1" parent="Qr0_MQB-56ZItfrZqpIL-73">
          <mxGeometry y="116" width="240" height="30" as="geometry" />
        </mxCell>
        <mxCell id="Qr0_MQB-56ZItfrZqpIL-78" value="&lt;div&gt;&lt;span style=&quot;font-size: 14px;&quot;&gt;Papel Interpretado&lt;/span&gt;&lt;/div&gt;" style="text;strokeColor=none;fillColor=none;spacingLeft=4;spacingRight=4;overflow=hidden;rotatable=0;points=[[0,0.5],[1,0.5]];portConstraint=eastwest;fontSize=14;whiteSpace=wrap;html=1;" vertex="1" parent="Qr0_MQB-56ZItfrZqpIL-73">
          <mxGeometry y="146" width="240" height="30" as="geometry" />
        </mxCell>
        <mxCell id="Qr0_MQB-56ZItfrZqpIL-79" value="&lt;span style=&quot;font-size: 18px;&quot;&gt;&lt;b&gt;DER&lt;/b&gt;&lt;/span&gt;" style="text;html=1;align=center;verticalAlign=middle;whiteSpace=wrap;rounded=0;" vertex="1" parent="1">
          <mxGeometry x="292.5" y="1960" width="280" height="30" as="geometry" />
        </mxCell>
        <mxCell id="Qr0_MQB-56ZItfrZqpIL-80" value="Peliculas " style="swimlane;fontStyle=0;childLayout=stackLayout;horizontal=1;startSize=26;horizontalStack=0;resizeParent=1;resizeParentMax=0;resizeLast=0;collapsible=1;marginBottom=0;align=center;fontSize=13;" vertex="1" parent="1">
          <mxGeometry x="294.5" y="2170" width="240" height="296" as="geometry" />
        </mxCell>
        <mxCell id="Qr0_MQB-56ZItfrZqpIL-81" value="&lt;div style=&quot;&quot;&gt;&lt;u style=&quot;&quot;&gt;&lt;font style=&quot;font-size: 14px;&quot;&gt;Cod. Pais de Filmacion&amp;nbsp;&lt;/font&gt;&lt;/u&gt;&lt;/div&gt;" style="text;strokeColor=none;fillColor=none;spacingLeft=4;spacingRight=4;overflow=hidden;rotatable=0;points=[[0,0.5],[1,0.5]];portConstraint=eastwest;fontSize=13;whiteSpace=wrap;html=1;" vertex="1" parent="Qr0_MQB-56ZItfrZqpIL-80">
          <mxGeometry y="26" width="240" height="30" as="geometry" />
        </mxCell>
        <mxCell id="Qr0_MQB-56ZItfrZqpIL-82" value="&lt;u style=&quot;&quot;&gt;&lt;font style=&quot;font-size: 14px;&quot;&gt;Cod. Película&lt;/font&gt;&lt;/u&gt;" style="text;strokeColor=none;fillColor=none;spacingLeft=4;spacingRight=4;overflow=hidden;rotatable=0;points=[[0,0.5],[1,0.5]];portConstraint=eastwest;fontSize=13;whiteSpace=wrap;html=1;" vertex="1" parent="Qr0_MQB-56ZItfrZqpIL-80">
          <mxGeometry y="56" width="240" height="30" as="geometry" />
        </mxCell>
        <mxCell id="Qr0_MQB-56ZItfrZqpIL-83" value="&lt;font style=&quot;font-size: 14px;&quot;&gt;Nombre de la Pelicula&lt;/font&gt;" style="text;strokeColor=none;fillColor=none;spacingLeft=4;spacingRight=4;overflow=hidden;rotatable=0;points=[[0,0.5],[1,0.5]];portConstraint=eastwest;fontSize=12;whiteSpace=wrap;html=1;" vertex="1" parent="Qr0_MQB-56ZItfrZqpIL-80">
          <mxGeometry y="86" width="240" height="30" as="geometry" />
        </mxCell>
        <mxCell id="Qr0_MQB-56ZItfrZqpIL-84" value="&lt;font style=&quot;font-size: 14px;&quot;&gt;Cod. Género&lt;/font&gt;" style="text;strokeColor=none;fillColor=none;spacingLeft=4;spacingRight=4;overflow=hidden;rotatable=0;points=[[0,0.5],[1,0.5]];portConstraint=eastwest;fontSize=13;whiteSpace=wrap;html=1;" vertex="1" parent="Qr0_MQB-56ZItfrZqpIL-80">
          <mxGeometry y="116" width="240" height="30" as="geometry" />
        </mxCell>
        <mxCell id="Qr0_MQB-56ZItfrZqpIL-85" value="&lt;span style=&quot;font-size: 14px;&quot;&gt;Argumento de la película&lt;/span&gt;" style="text;strokeColor=none;fillColor=none;spacingLeft=4;spacingRight=4;overflow=hidden;rotatable=0;points=[[0,0.5],[1,0.5]];portConstraint=eastwest;fontSize=14;whiteSpace=wrap;html=1;" vertex="1" parent="Qr0_MQB-56ZItfrZqpIL-80">
          <mxGeometry y="146" width="240" height="30" as="geometry" />
        </mxCell>
        <mxCell id="Qr0_MQB-56ZItfrZqpIL-86" value="&lt;font style=&quot;font-size: 14px;&quot;&gt;Matrícula del Director&lt;/font&gt;" style="text;strokeColor=none;fillColor=none;spacingLeft=4;spacingRight=4;overflow=hidden;rotatable=0;points=[[0,0.5],[1,0.5]];portConstraint=eastwest;fontSize=13;whiteSpace=wrap;html=1;" vertex="1" parent="Qr0_MQB-56ZItfrZqpIL-80">
          <mxGeometry y="176" width="240" height="30" as="geometry" />
        </mxCell>
        <mxCell id="Qr0_MQB-56ZItfrZqpIL-87" value="&lt;font style=&quot;font-size: 14px;&quot;&gt;Costo de rodaje&lt;/font&gt;" style="text;strokeColor=none;fillColor=none;align=left;verticalAlign=middle;spacingLeft=4;spacingRight=4;overflow=hidden;points=[[0,0.5],[1,0.5]];portConstraint=eastwest;rotatable=0;whiteSpace=wrap;html=1;" vertex="1" parent="Qr0_MQB-56ZItfrZqpIL-80">
          <mxGeometry y="206" width="240" height="30" as="geometry" />
        </mxCell>
        <mxCell id="Qr0_MQB-56ZItfrZqpIL-88" value="&lt;font style=&quot;font-size: 14px;&quot;&gt;Fecha de rodaje&lt;/font&gt;" style="text;strokeColor=none;fillColor=none;spacingLeft=4;spacingRight=4;overflow=hidden;rotatable=0;points=[[0,0.5],[1,0.5]];portConstraint=eastwest;fontSize=13;whiteSpace=wrap;html=1;" vertex="1" parent="Qr0_MQB-56ZItfrZqpIL-80">
          <mxGeometry y="236" width="240" height="30" as="geometry" />
        </mxCell>
        <mxCell id="Qr0_MQB-56ZItfrZqpIL-89" value="&lt;font style=&quot;font-size: 14px;&quot;&gt;Cod. de calificación de público&lt;/font&gt;" style="text;strokeColor=none;fillColor=none;spacingLeft=4;spacingRight=4;overflow=hidden;rotatable=0;points=[[0,0.5],[1,0.5]];portConstraint=eastwest;fontSize=13;whiteSpace=wrap;html=1;" vertex="1" parent="Qr0_MQB-56ZItfrZqpIL-80">
          <mxGeometry y="266" width="240" height="30" as="geometry" />
        </mxCell>
        <mxCell id="Qr0_MQB-56ZItfrZqpIL-90" value="Generos" style="swimlane;fontStyle=0;childLayout=stackLayout;horizontal=1;startSize=26;horizontalStack=0;resizeParent=1;resizeParentMax=0;resizeLast=0;collapsible=1;marginBottom=0;align=center;fontSize=14;" vertex="1" parent="1">
          <mxGeometry x="600" y="2180" width="240" height="86" as="geometry" />
        </mxCell>
        <mxCell id="Qr0_MQB-56ZItfrZqpIL-91" value="&lt;u style=&quot;&quot;&gt;&lt;font style=&quot;font-size: 14px;&quot;&gt;Cod. Género&lt;/font&gt;&lt;/u&gt;" style="text;strokeColor=none;fillColor=none;spacingLeft=4;spacingRight=4;overflow=hidden;rotatable=0;points=[[0,0.5],[1,0.5]];portConstraint=eastwest;fontSize=12;whiteSpace=wrap;html=1;" vertex="1" parent="Qr0_MQB-56ZItfrZqpIL-90">
          <mxGeometry y="26" width="240" height="30" as="geometry" />
        </mxCell>
        <mxCell id="Qr0_MQB-56ZItfrZqpIL-92" value="&lt;span style=&quot;font-size: 14px;&quot;&gt;Descripción Género&lt;/span&gt;" style="text;strokeColor=none;fillColor=none;spacingLeft=4;spacingRight=4;overflow=hidden;rotatable=0;points=[[0,0.5],[1,0.5]];portConstraint=eastwest;fontSize=12;whiteSpace=wrap;html=1;" vertex="1" parent="Qr0_MQB-56ZItfrZqpIL-90">
          <mxGeometry y="56" width="240" height="30" as="geometry" />
        </mxCell>
        <mxCell id="Qr0_MQB-56ZItfrZqpIL-93" value="Calificaciones" style="swimlane;fontStyle=0;childLayout=stackLayout;horizontal=1;startSize=26;horizontalStack=0;resizeParent=1;resizeParentMax=0;resizeLast=0;collapsible=1;marginBottom=0;align=center;fontSize=14;" vertex="1" parent="1">
          <mxGeometry x="587" y="2000" width="240" height="116" as="geometry" />
        </mxCell>
        <mxCell id="Qr0_MQB-56ZItfrZqpIL-94" value="&lt;u style=&quot;&quot;&gt;&lt;font style=&quot;font-size: 14px;&quot;&gt;Cod. de calificación de público&lt;/font&gt;&lt;/u&gt;" style="text;strokeColor=none;fillColor=none;spacingLeft=4;spacingRight=4;overflow=hidden;rotatable=0;points=[[0,0.5],[1,0.5]];portConstraint=eastwest;fontSize=12;whiteSpace=wrap;html=1;" vertex="1" parent="Qr0_MQB-56ZItfrZqpIL-93">
          <mxGeometry y="26" width="240" height="30" as="geometry" />
        </mxCell>
        <mxCell id="Qr0_MQB-56ZItfrZqpIL-95" value="&lt;div style=&quot;&quot;&gt;&lt;u style=&quot;&quot;&gt;&lt;font style=&quot;font-size: 14px;&quot;&gt;Cod. Pais de Filmacion&amp;nbsp;&lt;/font&gt;&lt;/u&gt;&lt;/div&gt;" style="text;strokeColor=none;fillColor=none;spacingLeft=4;spacingRight=4;overflow=hidden;rotatable=0;points=[[0,0.5],[1,0.5]];portConstraint=eastwest;fontSize=13;whiteSpace=wrap;html=1;" vertex="1" parent="Qr0_MQB-56ZItfrZqpIL-93">
          <mxGeometry y="56" width="240" height="30" as="geometry" />
        </mxCell>
        <mxCell id="Qr0_MQB-56ZItfrZqpIL-96" value="&lt;font style=&quot;font-size: 14px;&quot;&gt;Descripción calificación de público&lt;/font&gt;" style="text;strokeColor=none;fillColor=none;spacingLeft=4;spacingRight=4;overflow=hidden;rotatable=0;points=[[0,0.5],[1,0.5]];portConstraint=eastwest;fontSize=12;whiteSpace=wrap;html=1;" vertex="1" parent="Qr0_MQB-56ZItfrZqpIL-93">
          <mxGeometry y="86" width="240" height="30" as="geometry" />
        </mxCell>
        <mxCell id="Qr0_MQB-56ZItfrZqpIL-97" value="Directores" style="swimlane;fontStyle=0;childLayout=stackLayout;horizontal=1;startSize=26;horizontalStack=0;resizeParent=1;resizeParentMax=0;resizeLast=0;collapsible=1;marginBottom=0;align=center;fontSize=14;" vertex="1" parent="1">
          <mxGeometry x="294" y="2000" width="240" height="86" as="geometry" />
        </mxCell>
        <mxCell id="Qr0_MQB-56ZItfrZqpIL-98" value="&lt;u style=&quot;&quot;&gt;&lt;font style=&quot;font-size: 14px;&quot;&gt;Matricula del director&lt;/font&gt;&lt;/u&gt;" style="text;strokeColor=none;fillColor=none;spacingLeft=4;spacingRight=4;overflow=hidden;rotatable=0;points=[[0,0.5],[1,0.5]];portConstraint=eastwest;fontSize=12;whiteSpace=wrap;html=1;" vertex="1" parent="Qr0_MQB-56ZItfrZqpIL-97">
          <mxGeometry y="26" width="240" height="30" as="geometry" />
        </mxCell>
        <mxCell id="Qr0_MQB-56ZItfrZqpIL-99" value="&lt;font style=&quot;font-size: 14px;&quot;&gt;Nombre del director&amp;nbsp;&lt;/font&gt;" style="text;strokeColor=none;fillColor=none;spacingLeft=4;spacingRight=4;overflow=hidden;rotatable=0;points=[[0,0.5],[1,0.5]];portConstraint=eastwest;fontSize=12;whiteSpace=wrap;html=1;" vertex="1" parent="Qr0_MQB-56ZItfrZqpIL-97">
          <mxGeometry y="56" width="240" height="30" as="geometry" />
        </mxCell>
        <mxCell id="Qr0_MQB-56ZItfrZqpIL-100" value="Datos Actores" style="swimlane;fontStyle=0;childLayout=stackLayout;horizontal=1;startSize=26;horizontalStack=0;resizeParent=1;resizeParentMax=0;resizeLast=0;collapsible=1;marginBottom=0;align=center;fontSize=13;" vertex="1" parent="1">
          <mxGeometry x="9.5" y="2330" width="240.5" height="146" as="geometry" />
        </mxCell>
        <mxCell id="Qr0_MQB-56ZItfrZqpIL-101" value="&lt;div style=&quot;&quot;&gt;&lt;u style=&quot;&quot;&gt;&lt;font style=&quot;font-size: 14px;&quot;&gt;Legajo internacional del actor&lt;/font&gt;&lt;/u&gt;&lt;br&gt;&lt;/div&gt;" style="text;strokeColor=none;fillColor=none;spacingLeft=4;spacingRight=4;overflow=hidden;rotatable=0;points=[[0,0.5],[1,0.5]];portConstraint=eastwest;fontSize=13;whiteSpace=wrap;html=1;" vertex="1" parent="Qr0_MQB-56ZItfrZqpIL-100">
          <mxGeometry y="26" width="240.5" height="30" as="geometry" />
        </mxCell>
        <mxCell id="Qr0_MQB-56ZItfrZqpIL-102" value="&lt;font style=&quot;font-size: 14px;&quot;&gt;Nombre del actor&lt;/font&gt;" style="text;strokeColor=none;fillColor=none;spacingLeft=4;spacingRight=4;overflow=hidden;rotatable=0;points=[[0,0.5],[1,0.5]];portConstraint=eastwest;fontSize=13;whiteSpace=wrap;html=1;" vertex="1" parent="Qr0_MQB-56ZItfrZqpIL-100">
          <mxGeometry y="56" width="240.5" height="30" as="geometry" />
        </mxCell>
        <mxCell id="Qr0_MQB-56ZItfrZqpIL-103" value="&lt;span style=&quot;font-size: 14px;&quot;&gt;Fecha de nacimiento&lt;/span&gt;" style="text;strokeColor=none;fillColor=none;spacingLeft=4;spacingRight=4;overflow=hidden;rotatable=0;points=[[0,0.5],[1,0.5]];portConstraint=eastwest;fontSize=13;whiteSpace=wrap;html=1;" vertex="1" parent="Qr0_MQB-56ZItfrZqpIL-100">
          <mxGeometry y="86" width="240.5" height="30" as="geometry" />
        </mxCell>
        <mxCell id="Qr0_MQB-56ZItfrZqpIL-104" value="&lt;span style=&quot;font-size: 14px;&quot;&gt;Perfil artistico&lt;/span&gt;" style="text;strokeColor=none;fillColor=none;spacingLeft=4;spacingRight=4;overflow=hidden;rotatable=0;points=[[0,0.5],[1,0.5]];portConstraint=eastwest;fontSize=13;whiteSpace=wrap;html=1;" vertex="1" parent="Qr0_MQB-56ZItfrZqpIL-100">
          <mxGeometry y="116" width="240.5" height="30" as="geometry" />
        </mxCell>
        <mxCell id="Qr0_MQB-56ZItfrZqpIL-105" value="Pais" style="swimlane;fontStyle=0;childLayout=stackLayout;horizontal=1;startSize=26;horizontalStack=0;resizeParent=1;resizeParentMax=0;resizeLast=0;collapsible=1;marginBottom=0;align=center;fontSize=14;" vertex="1" parent="1">
          <mxGeometry x="320" y="2550" width="240" height="86" as="geometry" />
        </mxCell>
        <mxCell id="Qr0_MQB-56ZItfrZqpIL-106" value="&lt;u style=&quot;&quot;&gt;&lt;font style=&quot;font-size: 14px;&quot;&gt;Cod. Pais de Filmacion&amp;nbsp;&lt;/font&gt;&lt;/u&gt;" style="text;strokeColor=none;fillColor=none;spacingLeft=4;spacingRight=4;overflow=hidden;rotatable=0;points=[[0,0.5],[1,0.5]];portConstraint=eastwest;fontSize=12;whiteSpace=wrap;html=1;" vertex="1" parent="Qr0_MQB-56ZItfrZqpIL-105">
          <mxGeometry y="26" width="240" height="30" as="geometry" />
        </mxCell>
        <mxCell id="Qr0_MQB-56ZItfrZqpIL-107" value="&lt;div style=&quot;&quot;&gt;&lt;font style=&quot;font-size: 14px;&quot;&gt;Nombre del país&lt;/font&gt;&lt;br&gt;&lt;/div&gt;" style="text;strokeColor=none;fillColor=none;spacingLeft=4;spacingRight=4;overflow=hidden;rotatable=0;points=[[0,0.5],[1,0.5]];portConstraint=eastwest;fontSize=13;whiteSpace=wrap;html=1;" vertex="1" parent="Qr0_MQB-56ZItfrZqpIL-105">
          <mxGeometry y="56" width="240" height="30" as="geometry" />
        </mxCell>
        <mxCell id="Qr0_MQB-56ZItfrZqpIL-108" value="" style="fontSize=12;html=1;endArrow=ERzeroToMany;startArrow=ERmandOne;rounded=0;entryX=0.5;entryY=1.133;entryDx=0;entryDy=0;entryPerimeter=0;" edge="1" parent="1" source="Qr0_MQB-56ZItfrZqpIL-105" target="Qr0_MQB-56ZItfrZqpIL-89">
          <mxGeometry width="100" height="100" relative="1" as="geometry">
            <mxPoint x="360" y="2545" as="sourcePoint" />
            <mxPoint x="394" y="2446" as="targetPoint" />
          </mxGeometry>
        </mxCell>
        <mxCell id="Qr0_MQB-56ZItfrZqpIL-109" value="" style="fontSize=12;html=1;endArrow=ERoneToMany;startArrow=ERmandOne;rounded=0;exitX=0.008;exitY=0.8;exitDx=0;exitDy=0;exitPerimeter=0;" edge="1" parent="1" source="Qr0_MQB-56ZItfrZqpIL-91">
          <mxGeometry width="100" height="100" relative="1" as="geometry">
            <mxPoint x="579.25" y="2244" as="sourcePoint" />
            <mxPoint x="532.5" y="2230" as="targetPoint" />
          </mxGeometry>
        </mxCell>
        <mxCell id="Qr0_MQB-56ZItfrZqpIL-110" value="Antecedentes" style="swimlane;fontStyle=0;childLayout=stackLayout;horizontal=1;startSize=26;horizontalStack=0;resizeParent=1;resizeParentMax=0;resizeLast=0;collapsible=1;marginBottom=0;align=center;fontSize=13;" vertex="1" parent="1">
          <mxGeometry x="610" y="2330" width="240" height="176" as="geometry" />
        </mxCell>
        <mxCell id="Qr0_MQB-56ZItfrZqpIL-111" value="&lt;span style=&quot;font-size: 13px;&quot;&gt;&lt;u&gt;Legajo internacional del actor&lt;/u&gt;&lt;/span&gt;" style="text;strokeColor=none;fillColor=none;spacingLeft=4;spacingRight=4;overflow=hidden;rotatable=0;points=[[0,0.5],[1,0.5]];portConstraint=eastwest;fontSize=13;whiteSpace=wrap;html=1;" vertex="1" parent="Qr0_MQB-56ZItfrZqpIL-110">
          <mxGeometry y="26" width="240" height="30" as="geometry" />
        </mxCell>
        <mxCell id="Qr0_MQB-56ZItfrZqpIL-112" value="&lt;u&gt;Cod. Película en la que intervino&amp;nbsp;&lt;/u&gt;" style="text;strokeColor=none;fillColor=none;spacingLeft=4;spacingRight=4;overflow=hidden;rotatable=0;points=[[0,0.5],[1,0.5]];portConstraint=eastwest;fontSize=13;whiteSpace=wrap;html=1;" vertex="1" parent="Qr0_MQB-56ZItfrZqpIL-110">
          <mxGeometry y="56" width="240" height="30" as="geometry" />
        </mxCell>
        <mxCell id="Qr0_MQB-56ZItfrZqpIL-113" value="&lt;div style=&quot;font-size: 13px;&quot;&gt;&lt;u&gt;Cod. Pais de Filmacion&amp;nbsp;&lt;/u&gt;&lt;/div&gt;" style="text;strokeColor=none;fillColor=none;spacingLeft=4;spacingRight=4;overflow=hidden;rotatable=0;points=[[0,0.5],[1,0.5]];portConstraint=eastwest;fontSize=13;whiteSpace=wrap;html=1;" vertex="1" parent="Qr0_MQB-56ZItfrZqpIL-110">
          <mxGeometry y="86" width="240" height="30" as="geometry" />
        </mxCell>
        <mxCell id="Qr0_MQB-56ZItfrZqpIL-114" value="&lt;span style=&quot;font-size: 13px;&quot;&gt;Fecha realización&lt;/span&gt;" style="text;strokeColor=none;fillColor=none;spacingLeft=4;spacingRight=4;overflow=hidden;rotatable=0;points=[[0,0.5],[1,0.5]];portConstraint=eastwest;fontSize=13;whiteSpace=wrap;html=1;" vertex="1" parent="Qr0_MQB-56ZItfrZqpIL-110">
          <mxGeometry y="116" width="240" height="30" as="geometry" />
        </mxCell>
        <mxCell id="Qr0_MQB-56ZItfrZqpIL-115" value="Papel interpretado" style="text;strokeColor=none;fillColor=none;spacingLeft=4;spacingRight=4;overflow=hidden;rotatable=0;points=[[0,0.5],[1,0.5]];portConstraint=eastwest;fontSize=14;whiteSpace=wrap;html=1;" vertex="1" parent="Qr0_MQB-56ZItfrZqpIL-110">
          <mxGeometry y="146" width="240" height="30" as="geometry" />
        </mxCell>
        <mxCell id="Qr0_MQB-56ZItfrZqpIL-116" value="Actores" style="swimlane;fontStyle=0;childLayout=stackLayout;horizontal=1;startSize=26;horizontalStack=0;resizeParent=1;resizeParentMax=0;resizeLast=0;collapsible=1;marginBottom=0;align=center;fontSize=13;" vertex="1" parent="1">
          <mxGeometry x="10" y="2170" width="240" height="116" as="geometry" />
        </mxCell>
        <mxCell id="Qr0_MQB-56ZItfrZqpIL-117" value="&lt;div style=&quot;&quot;&gt;&lt;u style=&quot;&quot;&gt;&lt;font style=&quot;font-size: 14px;&quot;&gt;Cod. Pais de Filmacion&amp;nbsp;&lt;/font&gt;&lt;/u&gt;&lt;/div&gt;" style="text;strokeColor=none;fillColor=none;spacingLeft=4;spacingRight=4;overflow=hidden;rotatable=0;points=[[0,0.5],[1,0.5]];portConstraint=eastwest;fontSize=13;whiteSpace=wrap;html=1;" vertex="1" parent="Qr0_MQB-56ZItfrZqpIL-116">
          <mxGeometry y="26" width="240" height="30" as="geometry" />
        </mxCell>
        <mxCell id="Qr0_MQB-56ZItfrZqpIL-118" value="&lt;u style=&quot;&quot;&gt;&lt;font style=&quot;font-size: 14px;&quot;&gt;Cod. Película&lt;/font&gt;&lt;/u&gt;" style="text;strokeColor=none;fillColor=none;spacingLeft=4;spacingRight=4;overflow=hidden;rotatable=0;points=[[0,0.5],[1,0.5]];portConstraint=eastwest;fontSize=13;whiteSpace=wrap;html=1;" vertex="1" parent="Qr0_MQB-56ZItfrZqpIL-116">
          <mxGeometry y="56" width="240" height="30" as="geometry" />
        </mxCell>
        <mxCell id="Qr0_MQB-56ZItfrZqpIL-119" value="&lt;u style=&quot;&quot;&gt;&lt;font style=&quot;font-size: 14px;&quot;&gt;Legajo internacional del actor&lt;/font&gt;&lt;/u&gt;" style="text;strokeColor=none;fillColor=none;spacingLeft=4;spacingRight=4;overflow=hidden;rotatable=0;points=[[0,0.5],[1,0.5]];portConstraint=eastwest;fontSize=13;whiteSpace=wrap;html=1;" vertex="1" parent="Qr0_MQB-56ZItfrZqpIL-116">
          <mxGeometry y="86" width="240" height="30" as="geometry" />
        </mxCell>
        <mxCell id="Qr0_MQB-56ZItfrZqpIL-120" value="Cursos de Dirección realizados" style="swimlane;fontStyle=0;childLayout=stackLayout;horizontal=1;startSize=26;horizontalStack=0;resizeParent=1;resizeParentMax=0;resizeLast=0;collapsible=1;marginBottom=0;align=center;fontSize=14;" vertex="1" parent="1">
          <mxGeometry x="20" y="2000" width="240" height="86" as="geometry" />
        </mxCell>
        <mxCell id="Qr0_MQB-56ZItfrZqpIL-121" value="&lt;u style=&quot;&quot;&gt;&lt;font style=&quot;font-size: 14px;&quot;&gt;Matricula del director&lt;/font&gt;&lt;/u&gt;" style="text;strokeColor=none;fillColor=none;spacingLeft=4;spacingRight=4;overflow=hidden;rotatable=0;points=[[0,0.5],[1,0.5]];portConstraint=eastwest;fontSize=12;whiteSpace=wrap;html=1;" vertex="1" parent="Qr0_MQB-56ZItfrZqpIL-120">
          <mxGeometry y="26" width="240" height="30" as="geometry" />
        </mxCell>
        <mxCell id="Qr0_MQB-56ZItfrZqpIL-122" value="&lt;span style=&quot;font-size: 14px; text-align: center; text-wrap: nowrap;&quot;&gt;&lt;u&gt;Cursos de Dirección realizados&lt;/u&gt;&lt;/span&gt;" style="text;strokeColor=none;fillColor=none;spacingLeft=4;spacingRight=4;overflow=hidden;rotatable=0;points=[[0,0.5],[1,0.5]];portConstraint=eastwest;fontSize=12;whiteSpace=wrap;html=1;" vertex="1" parent="Qr0_MQB-56ZItfrZqpIL-120">
          <mxGeometry y="56" width="240" height="30" as="geometry" />
        </mxCell>
        <mxCell id="Qr0_MQB-56ZItfrZqpIL-123" value="" style="fontSize=12;html=1;endArrow=ERoneToMany;startArrow=ERmandOne;rounded=0;exitX=0.546;exitY=1.067;exitDx=0;exitDy=0;exitPerimeter=0;entryX=0.531;entryY=0.007;entryDx=0;entryDy=0;entryPerimeter=0;" edge="1" parent="1" source="Qr0_MQB-56ZItfrZqpIL-99" target="Qr0_MQB-56ZItfrZqpIL-80">
          <mxGeometry width="100" height="100" relative="1" as="geometry">
            <mxPoint x="568.5" y="2140" as="sourcePoint" />
            <mxPoint x="499" y="2140" as="targetPoint" />
          </mxGeometry>
        </mxCell>
        <mxCell id="Qr0_MQB-56ZItfrZqpIL-124" value="" style="fontSize=12;html=1;endArrow=ERzeroToMany;startArrow=ERmandOne;rounded=0;exitX=0.013;exitY=0.733;exitDx=0;exitDy=0;exitPerimeter=0;entryX=0.992;entryY=0.067;entryDx=0;entryDy=0;entryPerimeter=0;" edge="1" parent="1" source="Qr0_MQB-56ZItfrZqpIL-98" target="Qr0_MQB-56ZItfrZqpIL-121">
          <mxGeometry width="100" height="100" relative="1" as="geometry">
            <mxPoint x="780" y="2370" as="sourcePoint" />
            <mxPoint x="880" y="2270" as="targetPoint" />
          </mxGeometry>
        </mxCell>
        <mxCell id="Qr0_MQB-56ZItfrZqpIL-125" value="" style="fontSize=12;html=1;endArrow=ERoneToMany;startArrow=ERmandOne;rounded=0;entryX=-0.001;entryY=0.13;entryDx=0;entryDy=0;entryPerimeter=0;exitX=1;exitY=0;exitDx=0;exitDy=0;" edge="1" parent="1" source="Qr0_MQB-56ZItfrZqpIL-80" target="Qr0_MQB-56ZItfrZqpIL-95">
          <mxGeometry width="100" height="100" relative="1" as="geometry">
            <mxPoint x="470" y="2150" as="sourcePoint" />
            <mxPoint x="530.5" y="2170" as="targetPoint" />
          </mxGeometry>
        </mxCell>
        <mxCell id="Qr0_MQB-56ZItfrZqpIL-126" value="" style="fontSize=12;html=1;endArrow=ERoneToMany;startArrow=ERmandOne;rounded=0;entryX=1;entryY=0.5;entryDx=0;entryDy=0;exitX=1.003;exitY=0.796;exitDx=0;exitDy=0;exitPerimeter=0;" edge="1" parent="1" source="Qr0_MQB-56ZItfrZqpIL-94" target="Qr0_MQB-56ZItfrZqpIL-106">
          <mxGeometry width="100" height="100" relative="1" as="geometry">
            <mxPoint x="920" y="2630" as="sourcePoint" />
            <mxPoint x="597" y="2070" as="targetPoint" />
            <Array as="points">
              <mxPoint x="880" y="2050" />
              <mxPoint x="880" y="2590" />
            </Array>
          </mxGeometry>
        </mxCell>
      </root>
    </mxGraphModel>
  </diagram>
</mxfile>
